<svg width="591" height="801" viewBox="0 0 591 801" fill="none" xmlns="http://www.w3.org/2000/svg">
<path d="M13.61 798C8.06096 798 4.00195 793.649 4.00195 788.635V12.515C4.00195 7.5 8.06195 2.995 13.612 2.995H577.992C583.542 2.995 588.002 7.5 588.002 12.516V788.626C588.002 793.641 583.543 797.991 577.993 797.991H13.613L13.61 798Z" fill="white"/>
<path d="M578.01 7.03206C581.889 7.03206 584.998 9.17806 584.998 12.5211V788.631C584.998 791.974 581.867 794.996 577.989 794.996H13.609C9.73198 794.996 6.00098 791.974 6.00098 788.631V12.5111C6.00098 9.16806 9.73098 6.99106 13.611 6.99106H578.001M577.991 0.991056H13.611C6.38098 0.991056 0.000976562 5.81406 0.000976562 12.5121V788.622C0.000976562 795.318 6.37598 800.987 13.609 800.987H577.989C585.221 800.987 590.998 795.318 590.998 788.622V12.5021C590.998 5.80506 585.438 0.982056 578.198 0.982056H577.988L577.991 0.991056Z" fill="black"/>
<path d="M46.9999 53.797C46.3419 53.797 45.8659 53.904 45.5719 54.116C45.2779 54.328 45.0129 54.705 44.7789 55.247L41.5339 63.766C41.2749 64.544 41.1449 65.098 41.1449 65.428C41.1449 66.04 41.3039 66.559 41.6209 66.983C41.9379 67.407 42.3629 67.75 42.8909 68.009C43.4209 68.268 44.0259 68.462 44.7079 68.592C45.3899 68.722 46.0829 68.81 46.7889 68.857C47.1419 68.857 47.3879 68.985 47.5289 69.24C47.6699 69.494 47.7409 69.761 47.7409 70.039C47.7409 70.34 47.6699 70.619 47.5289 70.873C47.3879 71.128 47.1419 71.256 46.7889 71.256C46.2239 71.256 45.6009 71.226 44.9199 71.168C44.2379 71.109 43.5379 71.044 42.8209 70.974C42.1039 70.904 41.3809 70.838 40.6519 70.781C39.9239 70.722 39.2299 70.693 38.5709 70.693C37.3249 70.693 36.1209 70.787 34.9569 70.975C33.7919 71.163 32.5409 71.258 31.2019 71.258C30.9189 71.258 30.6949 71.118 30.5319 70.841C30.3669 70.563 30.2839 70.262 30.2839 69.937C30.2839 69.683 30.3489 69.45 30.4779 69.243C30.6069 69.035 30.8249 68.907 31.1299 68.86L32.2229 68.719C32.9509 68.554 33.6039 68.354 34.1809 68.119C34.7569 67.884 35.3039 67.536 35.8209 67.077C36.3379 66.619 36.8309 65.994 37.3009 65.207C37.7709 64.419 38.2649 63.39 38.7819 62.119L55.1019 21C55.2429 20.6 55.6299 20.4 56.2659 20.4C56.9229 20.4 57.4529 20.6 57.8529 21C59.0509 24.083 60.3389 27.382 61.7129 30.899C63.0889 34.417 64.4939 37.993 65.9279 41.628C67.3619 45.263 68.8029 48.874 70.2479 52.462C71.6939 56.051 73.0749 59.444 74.3919 62.644C74.9559 64.033 75.5089 65.109 76.0499 65.873C76.5899 66.638 77.1429 67.22 77.7069 67.62C78.2719 68.02 78.8479 68.291 79.4349 68.432C80.0219 68.573 80.6469 68.715 81.3049 68.855C81.5869 68.901 81.7919 69.052 81.9219 69.307C82.0509 69.562 82.1159 69.828 82.1159 70.106C82.1159 70.407 82.0559 70.674 81.9389 70.905C81.8209 71.136 81.6319 71.253 81.3739 71.253C80.6219 71.253 79.8759 71.229 79.1349 71.182C78.3949 71.135 77.6589 71.064 76.9309 70.97C76.2249 70.876 75.4729 70.806 74.6739 70.759C73.8739 70.712 73.0279 70.689 72.1349 70.689C70.0899 70.689 68.1849 70.783 66.4219 70.971C64.6579 71.159 62.9529 71.254 61.3079 71.254C60.9789 71.254 60.7259 71.126 60.5499 70.871C60.3729 70.617 60.2839 70.315 60.2839 69.968C60.2839 69.69 60.3549 69.446 60.4959 69.239C60.6369 69.031 60.8839 68.903 61.2359 68.856C62.8819 68.644 64.0809 68.35 64.8339 67.972C65.6089 67.595 65.9979 66.794 65.9979 65.568C65.9979 65.238 65.9619 64.856 65.8919 64.42C65.8219 63.983 65.6679 63.388 65.4339 62.635C65.1979 61.881 64.8639 60.915 64.4289 59.737C63.9939 58.559 63.4109 57.062 62.6829 55.247C62.4489 54.611 62.1249 54.21 61.7129 54.045C61.3019 53.88 60.6379 53.797 59.7209 53.797H47.0109H46.9999ZM59.4399 50.976C60.0969 50.976 60.5509 50.865 60.7969 50.641C61.0449 50.418 61.0489 50.024 60.8149 49.46L54.5019 32.567C54.4069 32.309 54.2189 32.179 53.9379 32.179C53.6559 32.179 53.4679 32.308 53.3739 32.567L46.7789 49.46C46.5439 50.071 46.5199 50.477 46.7079 50.676C46.8959 50.876 47.2609 50.976 47.8019 50.976H59.4219H59.4399Z" fill="black"/>
<path d="M536.58 742.36C537.238 742.36 537.715 742.253 538.009 742.04C538.302 741.828 538.568 741.451 538.802 740.91L542.047 732.39C542.305 731.613 542.436 731.059 542.436 730.729C542.436 730.117 542.277 729.598 541.959 729.174C541.642 728.749 541.218 728.406 540.689 728.148C540.159 727.889 539.554 727.695 538.873 727.566C538.19 727.435 537.497 727.347 536.792 727.3C536.439 727.3 536.191 727.172 536.052 726.916C535.91 726.663 535.84 726.395 535.84 726.118C535.84 725.817 535.91 725.538 536.052 725.284C536.192 725.028 536.44 724.9 536.792 724.9C537.357 724.9 537.98 724.931 538.661 724.989C539.343 725.049 540.043 725.114 540.76 725.183C541.478 725.253 542.199 725.32 542.928 725.376C543.657 725.435 544.352 725.465 545.01 725.465C546.256 725.465 547.46 725.371 548.624 725.183C549.787 724.995 551.04 724.9 552.38 724.9C552.662 724.9 552.885 725.04 553.05 725.318C553.214 725.596 553.297 725.897 553.297 726.222C553.297 726.476 553.233 726.708 553.103 726.915C552.974 727.124 552.756 727.252 552.45 727.299L551.358 727.439C550.629 727.605 549.977 727.804 549.4 728.04C548.824 728.275 548.278 728.623 547.76 729.081C547.243 729.541 546.749 730.163 546.28 730.952C545.808 731.739 545.316 732.768 544.798 734.041L528.471 775.155C528.329 775.554 527.941 775.755 527.307 775.755C526.648 775.755 526.119 775.555 525.719 775.155C524.521 772.072 523.233 768.772 521.859 765.255C520.483 761.738 519.079 758.162 517.644 754.527C516.21 750.892 514.77 747.28 513.324 743.692C511.879 740.104 510.498 736.71 509.18 733.51C508.617 732.121 508.064 731.045 507.522 730.281C506.983 729.515 506.429 728.933 505.865 728.533C505.302 728.133 504.725 727.862 504.138 727.721C503.55 727.58 502.926 727.438 502.268 727.298C501.986 727.251 501.781 727.101 501.651 726.846C501.522 726.59 501.457 726.325 501.457 726.046C501.457 725.744 501.517 725.478 501.634 725.247C501.751 725.016 501.941 724.898 502.198 724.898C502.95 724.898 503.696 724.922 504.436 724.969C505.177 725.017 505.912 725.087 506.641 725.181C507.347 725.275 508.099 725.346 508.899 725.393C509.697 725.44 510.545 725.463 511.438 725.463C513.483 725.463 515.387 725.369 517.151 725.181C518.914 724.993 520.618 724.898 522.264 724.898C522.593 724.898 522.845 725.026 523.022 725.282C523.199 725.536 523.288 725.838 523.288 726.184C523.288 726.462 523.217 726.706 523.074 726.913C522.934 727.122 522.687 727.25 522.336 727.297C520.69 727.508 519.491 727.803 518.738 728.181C517.962 728.557 517.573 729.359 517.573 730.585C517.573 730.914 517.609 731.296 517.678 731.733C517.749 732.169 517.904 732.763 518.138 733.517C518.372 734.272 518.707 735.238 519.142 736.415C519.579 737.593 520.161 739.09 520.888 740.905C521.123 741.54 521.447 741.941 521.859 742.106C522.27 742.272 522.934 742.355 523.851 742.355H536.581L536.58 742.36ZM524.13 745.18C523.471 745.18 523.019 745.291 522.773 745.514C522.525 745.738 522.519 746.132 522.753 746.696L529.066 763.589C529.16 763.847 529.349 763.978 529.631 763.978C529.912 763.978 530.101 763.847 530.194 763.589L536.789 746.696C537.025 746.086 537.049 745.679 536.859 745.48C536.671 745.28 536.307 745.18 535.765 745.18H524.135H524.13Z" fill="black"/>
<path fill-rule="evenodd" clip-rule="evenodd" d="M368.14 358.14C360.545 358.14 353.236 359.343 346.375 361.549C357.838 348.927 364.822 332.169 364.822 313.777C364.822 274.52 332.998 242.695 293.74 242.695C254.483 242.695 222.659 274.519 222.659 313.777C222.659 334.218 231.3 352.63 245.114 365.598C239.342 364.085 233.285 363.272 227.039 363.272C187.782 363.272 155.958 395.096 155.958 434.353C155.958 473.611 187.781 505.434 227.039 505.434C249.845 505.434 270.127 494.353 283.133 477.656C279.88 521.219 276.431 555.004 276.431 555.004H319.03C319.03 555.004 313.993 517.393 309.773 469.447C322.613 487.892 343.961 500.14 368.139 500.14C407.396 500.14 439.219 468.398 439.219 429.139C439.219 389.889 407.399 358.149 368.139 358.149L368.14 358.14ZM277.06 382.86C276.95 383.084 276.839 383.307 276.728 383.531C276.38 383.191 276.026 382.856 275.672 382.523C276.132 382.653 276.592 382.753 277.062 382.863L277.06 382.86Z" fill="black"/>
<path fill-rule="evenodd" clip-rule="evenodd" d="M69.68 103.25C68.164 103.25 66.704 103.49 65.334 103.931C67.624 101.41 69.018 98.062 69.018 94.389C69.018 86.548 62.662 80.192 54.821 80.192C46.98 80.192 40.624 86.547 40.624 94.389C40.624 98.471 42.351 102.149 45.108 104.739C43.956 104.437 42.746 104.274 41.499 104.274C33.658 104.274 27.302 110.63 27.302 118.471C27.302 126.312 33.658 132.668 41.499 132.668C46.054 132.668 50.105 130.672 52.702 127.337C52.053 136.037 51.364 143.003 51.364 143.003H59.873C59.873 143.003 58.867 135.274 58.023 125.698C60.588 129.383 64.852 131.719 69.68 131.719C77.522 131.719 83.878 125.324 83.878 117.484C83.898 109.624 77.538 103.234 69.698 103.234L69.68 103.25ZM51.49 108.18C51.468 108.225 51.446 108.269 51.424 108.314C51.354 108.247 51.284 108.18 51.213 108.113C51.303 108.143 51.403 108.163 51.493 108.183L51.49 108.18Z" fill="black"/>
<path fill-rule="evenodd" clip-rule="evenodd" d="M555.59 678.24C555.59 670.4 549.234 664.019 541.393 664.019C536.564 664.019 532.3 665.971 529.737 669.657C530.579 660.081 531.586 651.997 531.586 651.997H523.077C523.077 651.997 523.765 659.317 524.416 668.018C521.818 664.682 517.768 662.835 513.212 662.835C505.371 662.835 499.015 669.294 499.015 677.135C499.015 684.975 505.371 691.384 513.212 691.384C514.46 691.384 515.669 691.246 516.822 690.945C514.063 693.535 512.337 697.226 512.337 701.308C512.337 709.149 518.693 715.51 526.535 715.51C534.375 715.51 540.731 709.159 540.731 701.317C540.731 697.644 539.336 694.299 537.047 691.778C538.417 692.218 539.877 692.459 541.393 692.459C549.223 692.459 555.573 686.079 555.573 678.239L555.59 678.24ZM522.93 687.59C523.001 687.523 523.073 687.456 523.142 687.389C523.163 687.432 523.186 687.478 523.208 687.523C523.108 687.553 523.018 687.573 522.928 687.593L522.93 687.59Z" fill="black"/>
</svg>
